<svg id="Layer_1" data-name="Layer 1" xmlns="http://www.w3.org/2000/svg" viewBox="0 0 200 117.21"><path d="M18.19,66.43C29.66,64.78,37,58.18,37.06,49.12V49c0-8.69-7.3-10.84-18.21-11.31-4.52-.21-5.67-.78-5.67-1.95v-.12c0-1,1-1.93,3.11-2.24a20.1,20.1,0,0,1,12.8,2.41l7-10.73c-4.93-3.24-11-4.33-19.26-3.15C8.12,23.16,2.42,27.44,0,32.88V44.44C2.72,49,9.32,50,16.63,50.46c4.57.26,5.91.74,5.91,2v.12c0,1.17-1.1,2-3.67,2.38A22,22,0,0,1,3.94,52L0,57.34v7C5,66.71,11.31,67.43,18.19,66.43Z"/><polygon points="51.55 60.83 65.82 58.77 65.87 27.84 78.44 26.04 78.46 13.84 39.06 19.51 39.04 31.71 51.6 29.9 51.55 60.83"/><path d="M90.1,55.28l2.21-6.11L107.25,47l2.24,5.47L125,50.26,107.07,9.41l-14.15,2-18.07,46Zm9.74-27.89,3.89,9.91-7.81,1.13Z"/><path d="M167.73,18.6l-20.68,3v9.24l7.31-1.05v4.31a10.5,10.5,0,0,1-4.89,1.69c-6,.86-10.17-2.72-10.16-8.82v-.13a11.42,11.42,0,0,1,9.59-11.54,12.58,12.58,0,0,1,9.44,2.4l8-10.88c-4.63-3.41-10.54-5-17.85-4-13.48,1.94-23.56,13-23.58,25.88v.12c0,13.37,10.63,20.83,23.92,18.92a34.09,34.09,0,0,0,18.86-9.19Z"/><polygon points="173.66 43.25 200 39.46 200 27.63 187.7 29.4 187.71 24.72 200 22.95 200 12.54 187.73 14.31 187.74 9.93 200 8.17 200 0 174.58 0 173.73 0.12 173.66 43.25"/><path d="M18.67,105.2c11.53-1.66,19.4-8.34,19.42-18.75v-.12c0-10.23-7.72-14.23-19.06-12.6L0,76.47v40.74H14V105.87ZM14.07,86,18,85.4c3.78-.54,6,.74,6,3.88v.12c0,3.08-2.45,5.1-6.1,5.63l-3.85.55Z"/><polygon points="43.05 113.39 57.32 111.34 57.39 68.21 43.12 70.26 43.05 113.39"/><polygon points="78.5 65.17 64.22 67.23 64.15 110.36 98.49 105.42 98.51 93.09 78.45 95.98 78.5 65.17"/><path d="M123.45,57.78c-13.17,1.89-23.37,13.34-23.39,25.85v.12c0,12.51,10,20.92,23.19,19s23.37-13.35,23.4-25.86V76.8C146.67,64.29,136.62,55.88,123.45,57.78Zm8.8,21.34c0,5-3.43,10.1-8.86,10.88s-9-3.33-9-8.44v-.13c0-5.05,3.44-10.1,8.86-10.88s9,3.33,9,8.44Z"/><polygon points="148.95 55.03 148.93 67.23 161.49 65.42 161.44 96.35 175.71 94.3 175.76 63.37 188.32 61.56 188.34 49.36 148.95 55.03"/><polygon points="186.32 92.77 200 90.8 200 76.64 186.35 78.6 186.32 92.77"/></svg>